<mxfile host="app.diagrams.net" modified="2020-11-15T16:29:47.396Z" agent="5.0 (Windows)" etag="x-irge8Oj9ph6FAv8nFb" version="13.9.7" type="github">
  <diagram id="C5RBs43oDa-KdzZeNtuy" name="Page-1">
    <mxGraphModel dx="1422" dy="763" grid="1" gridSize="10" guides="1" tooltips="1" connect="1" arrows="1" fold="1" page="1" pageScale="1" pageWidth="827" pageHeight="1169" math="0" shadow="0">
      <root>
        <mxCell id="WIyWlLk6GJQsqaUBKTNV-0" />
        <mxCell id="WIyWlLk6GJQsqaUBKTNV-1" parent="WIyWlLk6GJQsqaUBKTNV-0" />
        <mxCell id="yQgFcMoR-h9pyPP3ds3_-6" value="Vehicles" style="swimlane;fontStyle=3;align=center;verticalAlign=top;childLayout=stackLayout;horizontal=1;startSize=26;horizontalStack=0;resizeParent=1;resizeParentMax=0;resizeLast=0;collapsible=1;marginBottom=0;" vertex="1" parent="WIyWlLk6GJQsqaUBKTNV-1">
          <mxGeometry x="50" y="60" width="110" height="130" as="geometry" />
        </mxCell>
        <mxCell id="yQgFcMoR-h9pyPP3ds3_-7" value="- noOfWheels: int&#xa;- reg: int&#xa;- owner: Person &#xa;&#xa;" style="text;strokeColor=none;fillColor=none;align=left;verticalAlign=top;spacingLeft=4;spacingRight=4;overflow=hidden;rotatable=0;points=[[0,0.5],[1,0.5]];portConstraint=eastwest;" vertex="1" parent="yQgFcMoR-h9pyPP3ds3_-6">
          <mxGeometry y="26" width="110" height="54" as="geometry" />
        </mxCell>
        <mxCell id="yQgFcMoR-h9pyPP3ds3_-8" value="" style="line;strokeWidth=1;fillColor=none;align=left;verticalAlign=middle;spacingTop=-1;spacingLeft=3;spacingRight=3;rotatable=0;labelPosition=right;points=[];portConstraint=eastwest;" vertex="1" parent="yQgFcMoR-h9pyPP3ds3_-6">
          <mxGeometry y="80" width="110" height="8" as="geometry" />
        </mxCell>
        <mxCell id="yQgFcMoR-h9pyPP3ds3_-9" value="+ start(): void&#xa;+ stop(): void&#xa;&#xa;" style="text;strokeColor=none;fillColor=none;align=left;verticalAlign=top;spacingLeft=4;spacingRight=4;overflow=hidden;rotatable=0;points=[[0,0.5],[1,0.5]];portConstraint=eastwest;fontStyle=0" vertex="1" parent="yQgFcMoR-h9pyPP3ds3_-6">
          <mxGeometry y="88" width="110" height="42" as="geometry" />
        </mxCell>
        <mxCell id="yQgFcMoR-h9pyPP3ds3_-23" style="edgeStyle=orthogonalEdgeStyle;rounded=0;orthogonalLoop=1;jettySize=auto;html=1;exitX=0.5;exitY=0;exitDx=0;exitDy=0;entryX=0.625;entryY=1;entryDx=0;entryDy=0;entryPerimeter=0;endArrow=block;endFill=0;" edge="1" parent="WIyWlLk6GJQsqaUBKTNV-1" source="yQgFcMoR-h9pyPP3ds3_-18" target="yQgFcMoR-h9pyPP3ds3_-9">
          <mxGeometry relative="1" as="geometry" />
        </mxCell>
        <mxCell id="yQgFcMoR-h9pyPP3ds3_-18" value="Car" style="swimlane;fontStyle=1;align=center;verticalAlign=top;childLayout=stackLayout;horizontal=1;startSize=26;horizontalStack=0;resizeParent=1;resizeParentMax=0;resizeLast=0;collapsible=1;marginBottom=0;" vertex="1" parent="WIyWlLk6GJQsqaUBKTNV-1">
          <mxGeometry x="185" y="240" width="160" height="100" as="geometry" />
        </mxCell>
        <mxCell id="yQgFcMoR-h9pyPP3ds3_-19" value="- numberOfDoors: int&#xa;&#xa;&#xa;" style="text;strokeColor=none;fillColor=none;align=left;verticalAlign=top;spacingLeft=4;spacingRight=4;overflow=hidden;rotatable=0;points=[[0,0.5],[1,0.5]];portConstraint=eastwest;" vertex="1" parent="yQgFcMoR-h9pyPP3ds3_-18">
          <mxGeometry y="26" width="160" height="34" as="geometry" />
        </mxCell>
        <mxCell id="yQgFcMoR-h9pyPP3ds3_-20" value="" style="line;strokeWidth=1;fillColor=none;align=left;verticalAlign=middle;spacingTop=-1;spacingLeft=3;spacingRight=3;rotatable=0;labelPosition=right;points=[];portConstraint=eastwest;" vertex="1" parent="yQgFcMoR-h9pyPP3ds3_-18">
          <mxGeometry y="60" width="160" height="8" as="geometry" />
        </mxCell>
        <mxCell id="yQgFcMoR-h9pyPP3ds3_-21" value="+ displayDetails(): void&#xa;" style="text;strokeColor=none;fillColor=none;align=left;verticalAlign=top;spacingLeft=4;spacingRight=4;overflow=hidden;rotatable=0;points=[[0,0.5],[1,0.5]];portConstraint=eastwest;fontStyle=0" vertex="1" parent="yQgFcMoR-h9pyPP3ds3_-18">
          <mxGeometry y="68" width="160" height="32" as="geometry" />
        </mxCell>
        <mxCell id="yQgFcMoR-h9pyPP3ds3_-44" style="edgeStyle=orthogonalEdgeStyle;rounded=0;orthogonalLoop=1;jettySize=auto;html=1;exitX=0.5;exitY=1;exitDx=0;exitDy=0;entryX=0.5;entryY=0;entryDx=0;entryDy=0;endArrow=none;endFill=0;startArrow=diamondThin;startFill=1;startSize=17;" edge="1" parent="WIyWlLk6GJQsqaUBKTNV-1" source="yQgFcMoR-h9pyPP3ds3_-24" target="yQgFcMoR-h9pyPP3ds3_-40">
          <mxGeometry relative="1" as="geometry" />
        </mxCell>
        <mxCell id="yQgFcMoR-h9pyPP3ds3_-45" value="1" style="edgeLabel;html=1;align=center;verticalAlign=middle;resizable=0;points=[];" vertex="1" connectable="0" parent="yQgFcMoR-h9pyPP3ds3_-44">
          <mxGeometry x="-0.7872" y="1" relative="1" as="geometry">
            <mxPoint x="14" y="-2.0700000000000003" as="offset" />
          </mxGeometry>
        </mxCell>
        <mxCell id="yQgFcMoR-h9pyPP3ds3_-46" value="1" style="edgeLabel;html=1;align=center;verticalAlign=middle;resizable=0;points=[];" vertex="1" connectable="0" parent="yQgFcMoR-h9pyPP3ds3_-44">
          <mxGeometry x="0.6906" y="1" relative="1" as="geometry">
            <mxPoint x="4" as="offset" />
          </mxGeometry>
        </mxCell>
        <mxCell id="yQgFcMoR-h9pyPP3ds3_-24" value="CarPark" style="swimlane;fontStyle=1;align=center;verticalAlign=top;childLayout=stackLayout;horizontal=1;startSize=26;horizontalStack=0;resizeParent=1;resizeParentMax=0;resizeLast=0;collapsible=1;marginBottom=0;" vertex="1" parent="WIyWlLk6GJQsqaUBKTNV-1">
          <mxGeometry x="455" y="130" width="190" height="150" as="geometry" />
        </mxCell>
        <mxCell id="yQgFcMoR-h9pyPP3ds3_-25" value="- floors: int&#xa;- noOfSpaces: int&#xa;- spacesFull: bool &#xa;- manager: CarParkManager&#xa;&#xa;" style="text;strokeColor=none;fillColor=none;align=left;verticalAlign=top;spacingLeft=4;spacingRight=4;overflow=hidden;rotatable=0;points=[[0,0.5],[1,0.5]];portConstraint=eastwest;" vertex="1" parent="yQgFcMoR-h9pyPP3ds3_-24">
          <mxGeometry y="26" width="190" height="74" as="geometry" />
        </mxCell>
        <mxCell id="yQgFcMoR-h9pyPP3ds3_-26" value="" style="line;strokeWidth=1;fillColor=none;align=left;verticalAlign=middle;spacingTop=-1;spacingLeft=3;spacingRight=3;rotatable=0;labelPosition=right;points=[];portConstraint=eastwest;" vertex="1" parent="yQgFcMoR-h9pyPP3ds3_-24">
          <mxGeometry y="100" width="190" height="8" as="geometry" />
        </mxCell>
        <mxCell id="yQgFcMoR-h9pyPP3ds3_-27" value="+ openBarrier(): void&#xa;+ closeBarrier(): void&#xa;&#xa;" style="text;strokeColor=none;fillColor=none;align=left;verticalAlign=top;spacingLeft=4;spacingRight=4;overflow=hidden;rotatable=0;points=[[0,0.5],[1,0.5]];portConstraint=eastwest;fontStyle=0" vertex="1" parent="yQgFcMoR-h9pyPP3ds3_-24">
          <mxGeometry y="108" width="190" height="42" as="geometry" />
        </mxCell>
        <mxCell id="yQgFcMoR-h9pyPP3ds3_-33" style="edgeStyle=orthogonalEdgeStyle;rounded=0;orthogonalLoop=1;jettySize=auto;html=1;exitX=0.5;exitY=0;exitDx=0;exitDy=0;endArrow=block;endFill=0;" edge="1" parent="WIyWlLk6GJQsqaUBKTNV-1" source="yQgFcMoR-h9pyPP3ds3_-28" target="yQgFcMoR-h9pyPP3ds3_-7">
          <mxGeometry relative="1" as="geometry" />
        </mxCell>
        <mxCell id="yQgFcMoR-h9pyPP3ds3_-28" value="Bike" style="swimlane;fontStyle=1;align=center;verticalAlign=top;childLayout=stackLayout;horizontal=1;startSize=26;horizontalStack=0;resizeParent=1;resizeParentMax=0;resizeLast=0;collapsible=1;marginBottom=0;" vertex="1" parent="WIyWlLk6GJQsqaUBKTNV-1">
          <mxGeometry x="195" y="80" width="160" height="100" as="geometry" />
        </mxCell>
        <mxCell id="yQgFcMoR-h9pyPP3ds3_-29" value="- hasBikeLock: bool&#xa;&#xa;&#xa;" style="text;strokeColor=none;fillColor=none;align=left;verticalAlign=top;spacingLeft=4;spacingRight=4;overflow=hidden;rotatable=0;points=[[0,0.5],[1,0.5]];portConstraint=eastwest;" vertex="1" parent="yQgFcMoR-h9pyPP3ds3_-28">
          <mxGeometry y="26" width="160" height="34" as="geometry" />
        </mxCell>
        <mxCell id="yQgFcMoR-h9pyPP3ds3_-30" value="" style="line;strokeWidth=1;fillColor=none;align=left;verticalAlign=middle;spacingTop=-1;spacingLeft=3;spacingRight=3;rotatable=0;labelPosition=right;points=[];portConstraint=eastwest;" vertex="1" parent="yQgFcMoR-h9pyPP3ds3_-28">
          <mxGeometry y="60" width="160" height="8" as="geometry" />
        </mxCell>
        <mxCell id="yQgFcMoR-h9pyPP3ds3_-31" value="+ displayDetails(): void&#xa;" style="text;strokeColor=none;fillColor=none;align=left;verticalAlign=top;spacingLeft=4;spacingRight=4;overflow=hidden;rotatable=0;points=[[0,0.5],[1,0.5]];portConstraint=eastwest;fontStyle=0" vertex="1" parent="yQgFcMoR-h9pyPP3ds3_-28">
          <mxGeometry y="68" width="160" height="32" as="geometry" />
        </mxCell>
        <mxCell id="yQgFcMoR-h9pyPP3ds3_-34" style="edgeStyle=orthogonalEdgeStyle;rounded=0;orthogonalLoop=1;jettySize=auto;html=1;exitX=1;exitY=0.5;exitDx=0;exitDy=0;entryX=0;entryY=0.5;entryDx=0;entryDy=0;endArrow=diamond;endFill=0;strokeWidth=1;endSize=15;" edge="1" parent="WIyWlLk6GJQsqaUBKTNV-1" source="yQgFcMoR-h9pyPP3ds3_-29" target="yQgFcMoR-h9pyPP3ds3_-24">
          <mxGeometry relative="1" as="geometry" />
        </mxCell>
        <mxCell id="yQgFcMoR-h9pyPP3ds3_-37" value="0..*" style="edgeLabel;html=1;align=center;verticalAlign=middle;resizable=0;points=[];" vertex="1" connectable="0" parent="yQgFcMoR-h9pyPP3ds3_-34">
          <mxGeometry x="-0.8733" y="1" relative="1" as="geometry">
            <mxPoint y="-9.01" as="offset" />
          </mxGeometry>
        </mxCell>
        <mxCell id="yQgFcMoR-h9pyPP3ds3_-36" style="edgeStyle=orthogonalEdgeStyle;rounded=0;orthogonalLoop=1;jettySize=auto;html=1;exitX=1;exitY=0.5;exitDx=0;exitDy=0;entryX=0.002;entryY=0.667;entryDx=0;entryDy=0;entryPerimeter=0;endArrow=diamond;endFill=0;endSize=17;" edge="1" parent="WIyWlLk6GJQsqaUBKTNV-1" source="yQgFcMoR-h9pyPP3ds3_-19" target="yQgFcMoR-h9pyPP3ds3_-25">
          <mxGeometry relative="1" as="geometry" />
        </mxCell>
        <mxCell id="yQgFcMoR-h9pyPP3ds3_-38" value="0..*" style="edgeLabel;html=1;align=center;verticalAlign=middle;resizable=0;points=[];" vertex="1" connectable="0" parent="yQgFcMoR-h9pyPP3ds3_-36">
          <mxGeometry x="-0.9267" y="1" relative="1" as="geometry">
            <mxPoint x="2.41" y="-12" as="offset" />
          </mxGeometry>
        </mxCell>
        <mxCell id="yQgFcMoR-h9pyPP3ds3_-39" value="1" style="edgeLabel;html=1;align=center;verticalAlign=middle;resizable=0;points=[];" vertex="1" connectable="0" parent="yQgFcMoR-h9pyPP3ds3_-36">
          <mxGeometry x="0.8939" y="2" relative="1" as="geometry">
            <mxPoint y="-13.36" as="offset" />
          </mxGeometry>
        </mxCell>
        <mxCell id="yQgFcMoR-h9pyPP3ds3_-52" style="edgeStyle=orthogonalEdgeStyle;rounded=0;orthogonalLoop=1;jettySize=auto;html=1;exitX=1;exitY=0.5;exitDx=0;exitDy=0;startArrow=none;startFill=0;startSize=17;endArrow=none;endFill=0;endSize=17;strokeWidth=1;" edge="1" parent="WIyWlLk6GJQsqaUBKTNV-1" source="yQgFcMoR-h9pyPP3ds3_-40" target="yQgFcMoR-h9pyPP3ds3_-49">
          <mxGeometry relative="1" as="geometry" />
        </mxCell>
        <mxCell id="yQgFcMoR-h9pyPP3ds3_-53" value="1" style="edgeLabel;html=1;align=center;verticalAlign=middle;resizable=0;points=[];" vertex="1" connectable="0" parent="yQgFcMoR-h9pyPP3ds3_-52">
          <mxGeometry x="-0.8256" relative="1" as="geometry">
            <mxPoint x="-1.03" y="-17" as="offset" />
          </mxGeometry>
        </mxCell>
        <mxCell id="yQgFcMoR-h9pyPP3ds3_-54" value="1..*" style="edgeLabel;html=1;align=center;verticalAlign=middle;resizable=0;points=[];" vertex="1" connectable="0" parent="yQgFcMoR-h9pyPP3ds3_-52">
          <mxGeometry x="0.8376" y="1" relative="1" as="geometry">
            <mxPoint y="-12.03" as="offset" />
          </mxGeometry>
        </mxCell>
        <mxCell id="yQgFcMoR-h9pyPP3ds3_-40" value="CarParkManager" style="swimlane;fontStyle=1;align=center;verticalAlign=top;childLayout=stackLayout;horizontal=1;startSize=26;horizontalStack=0;resizeParent=1;resizeParentMax=0;resizeLast=0;collapsible=1;marginBottom=0;" vertex="1" parent="WIyWlLk6GJQsqaUBKTNV-1">
          <mxGeometry x="255" y="410" width="190" height="140" as="geometry" />
        </mxCell>
        <mxCell id="yQgFcMoR-h9pyPP3ds3_-41" value="- carsParked: Car[0..*]&#xa;- bikesParked: Bike[0..*]&#xa;- ticketBooths: TicketBooth" style="text;strokeColor=none;fillColor=none;align=left;verticalAlign=top;spacingLeft=4;spacingRight=4;overflow=hidden;rotatable=0;points=[[0,0.5],[1,0.5]];portConstraint=eastwest;" vertex="1" parent="yQgFcMoR-h9pyPP3ds3_-40">
          <mxGeometry y="26" width="190" height="54" as="geometry" />
        </mxCell>
        <mxCell id="yQgFcMoR-h9pyPP3ds3_-42" value="" style="line;strokeWidth=1;fillColor=none;align=left;verticalAlign=middle;spacingTop=-1;spacingLeft=3;spacingRight=3;rotatable=0;labelPosition=right;points=[];portConstraint=eastwest;" vertex="1" parent="yQgFcMoR-h9pyPP3ds3_-40">
          <mxGeometry y="80" width="190" height="8" as="geometry" />
        </mxCell>
        <mxCell id="yQgFcMoR-h9pyPP3ds3_-43" value="+ updateSpaces(): void&#xa;+ turnOffLights(): bool&#xa;+ configureTicketBooths(): void&#xa;&#xa;" style="text;strokeColor=none;fillColor=none;align=left;verticalAlign=top;spacingLeft=4;spacingRight=4;overflow=hidden;rotatable=0;points=[[0,0.5],[1,0.5]];portConstraint=eastwest;fontStyle=0" vertex="1" parent="yQgFcMoR-h9pyPP3ds3_-40">
          <mxGeometry y="88" width="190" height="52" as="geometry" />
        </mxCell>
        <mxCell id="yQgFcMoR-h9pyPP3ds3_-48" value="TicketBooth" style="swimlane;fontStyle=1;align=center;verticalAlign=top;childLayout=stackLayout;horizontal=1;startSize=26;horizontalStack=0;resizeParent=1;resizeParentMax=0;resizeLast=0;collapsible=1;marginBottom=0;" vertex="1" parent="WIyWlLk6GJQsqaUBKTNV-1">
          <mxGeometry x="565" y="370" width="190" height="180" as="geometry" />
        </mxCell>
        <mxCell id="yQgFcMoR-h9pyPP3ds3_-49" value="- boothID: int&#xa;- configuration: ConfigFile&#xa;- tickets: Ticket[0...*]&#xa;- totalTickets: int&#xa;" style="text;strokeColor=none;fillColor=none;align=left;verticalAlign=top;spacingLeft=4;spacingRight=4;overflow=hidden;rotatable=0;points=[[0,0.5],[1,0.5]];portConstraint=eastwest;" vertex="1" parent="yQgFcMoR-h9pyPP3ds3_-48">
          <mxGeometry y="26" width="190" height="74" as="geometry" />
        </mxCell>
        <mxCell id="yQgFcMoR-h9pyPP3ds3_-50" value="" style="line;strokeWidth=1;fillColor=none;align=left;verticalAlign=middle;spacingTop=-1;spacingLeft=3;spacingRight=3;rotatable=0;labelPosition=right;points=[];portConstraint=eastwest;" vertex="1" parent="yQgFcMoR-h9pyPP3ds3_-48">
          <mxGeometry y="100" width="190" height="8" as="geometry" />
        </mxCell>
        <mxCell id="yQgFcMoR-h9pyPP3ds3_-51" value="+ takePayment(): void&#xa;+ giveTicket(): Ticket&#xa;+ giveChange(): float&#xa;+ checkTicket(): bool&#xa;" style="text;strokeColor=none;fillColor=none;align=left;verticalAlign=top;spacingLeft=4;spacingRight=4;overflow=hidden;rotatable=0;points=[[0,0.5],[1,0.5]];portConstraint=eastwest;fontStyle=0" vertex="1" parent="yQgFcMoR-h9pyPP3ds3_-48">
          <mxGeometry y="108" width="190" height="72" as="geometry" />
        </mxCell>
        <mxCell id="yQgFcMoR-h9pyPP3ds3_-59" style="edgeStyle=orthogonalEdgeStyle;rounded=0;orthogonalLoop=1;jettySize=auto;html=1;exitX=0.5;exitY=0;exitDx=0;exitDy=0;entryX=0.516;entryY=1.004;entryDx=0;entryDy=0;entryPerimeter=0;startArrow=none;startFill=0;startSize=17;endArrow=none;endFill=0;endSize=17;strokeWidth=1;" edge="1" parent="WIyWlLk6GJQsqaUBKTNV-1" source="yQgFcMoR-h9pyPP3ds3_-55" target="yQgFcMoR-h9pyPP3ds3_-51">
          <mxGeometry relative="1" as="geometry" />
        </mxCell>
        <mxCell id="yQgFcMoR-h9pyPP3ds3_-60" value="0..*" style="edgeLabel;html=1;align=center;verticalAlign=middle;resizable=0;points=[];" vertex="1" connectable="0" parent="yQgFcMoR-h9pyPP3ds3_-59">
          <mxGeometry x="-0.7864" y="1" relative="1" as="geometry">
            <mxPoint as="offset" />
          </mxGeometry>
        </mxCell>
        <mxCell id="yQgFcMoR-h9pyPP3ds3_-61" value="0..*" style="edgeLabel;html=1;align=center;verticalAlign=middle;resizable=0;points=[];" vertex="1" connectable="0" parent="yQgFcMoR-h9pyPP3ds3_-59">
          <mxGeometry x="0.9215" y="-2" relative="1" as="geometry">
            <mxPoint as="offset" />
          </mxGeometry>
        </mxCell>
        <mxCell id="yQgFcMoR-h9pyPP3ds3_-55" value="Ticket" style="swimlane;fontStyle=1;align=center;verticalAlign=top;childLayout=stackLayout;horizontal=1;startSize=26;horizontalStack=0;resizeParent=1;resizeParentMax=0;resizeLast=0;collapsible=1;marginBottom=0;" vertex="1" parent="WIyWlLk6GJQsqaUBKTNV-1">
          <mxGeometry x="395" y="610" width="190" height="140" as="geometry" />
        </mxCell>
        <mxCell id="yQgFcMoR-h9pyPP3ds3_-56" value="- ticketID: int&#xa;- ticketDate: Date&#xa;- value: float&#xa;" style="text;strokeColor=none;fillColor=none;align=left;verticalAlign=top;spacingLeft=4;spacingRight=4;overflow=hidden;rotatable=0;points=[[0,0.5],[1,0.5]];portConstraint=eastwest;" vertex="1" parent="yQgFcMoR-h9pyPP3ds3_-55">
          <mxGeometry y="26" width="190" height="54" as="geometry" />
        </mxCell>
        <mxCell id="yQgFcMoR-h9pyPP3ds3_-57" value="" style="line;strokeWidth=1;fillColor=none;align=left;verticalAlign=middle;spacingTop=-1;spacingLeft=3;spacingRight=3;rotatable=0;labelPosition=right;points=[];portConstraint=eastwest;" vertex="1" parent="yQgFcMoR-h9pyPP3ds3_-55">
          <mxGeometry y="80" width="190" height="8" as="geometry" />
        </mxCell>
        <mxCell id="yQgFcMoR-h9pyPP3ds3_-58" value="+ setTime(): void&#xa;+ setValue(): Ticket&#xa;+ getID(): int&#xa;&#xa;" style="text;strokeColor=none;fillColor=none;align=left;verticalAlign=top;spacingLeft=4;spacingRight=4;overflow=hidden;rotatable=0;points=[[0,0.5],[1,0.5]];portConstraint=eastwest;fontStyle=0" vertex="1" parent="yQgFcMoR-h9pyPP3ds3_-55">
          <mxGeometry y="88" width="190" height="52" as="geometry" />
        </mxCell>
      </root>
    </mxGraphModel>
  </diagram>
</mxfile>
